<?xml version="1.0" standalone="no"?>
<!DOCTYPE svg PUBLIC "-//W3C//DTD SVG 1.1//EN" "http://www.w3.org/Graphics/SVG/1.1/DTD/svg11.dtd">
<svg width="1350" height="500" version="1.1" xmlns="http://www.w3.org/2000/svg">
<rect width="1350" height="500" style="fill:white;stroke-width:5; stroke:black"/>
<line x1="10" y1="0" x2="10" y2="40" style="stroke:blue;stroke-width:2;opacity:0.5"/>
<line x1="10" y1="52" x2="10" y2="40" style="stroke:blue;stroke-width:2;opacity:0.5"/>
<text x="7" y="58" style="font-family:Verdana;font-size:12" transform="rotate(90 7 58)"> 0.00 "Power on"</text>
<line x1="22.445530726257" y1="0" x2="22.445530726257" y2="40" style="stroke:blue;stroke-width:2;opacity:0.5"/>
<line x1="25.6" y1="52" x2="22.445530726257" y2="40" style="stroke:blue;stroke-width:2;opacity:0.5"/>
<text x="22.6" y="58" style="font-family:Verdana;font-size:12" transform="rotate(90 22.6 58)"> 0.20 "Bgn NOR copy to RAM"</text>
<line x1="31.0521415270019" y1="0" x2="31.0521415270019" y2="40" style="stroke:blue;stroke-width:2;opacity:0.5"/>
<line x1="41.2" y1="52" x2="31.0521415270019" y2="40" style="stroke:blue;stroke-width:2;opacity:0.5"/>
<text x="38.2" y="58" style="font-family:Verdana;font-size:12" transform="rotate(90 38.2 58)"> 0.34 "End NOR copy to RAM"</text>
<line x1="32.104748603352" y1="0" x2="32.104748603352" y2="40" style="stroke:blue;stroke-width:2;opacity:0.5"/>
<line x1="56.8" y1="52" x2="32.104748603352" y2="40" style="stroke:blue;stroke-width:2;opacity:0.5"/>
<text x="53.8" y="58" style="font-family:Verdana;font-size:12" transform="rotate(90 53.8 58)"> 0.36 "Bgn Copy Logo Screen to FB??"</text>
<line x1="33.9622905027933" y1="0" x2="33.9622905027933" y2="40" style="stroke:blue;stroke-width:2;opacity:0.5"/>
<line x1="72.4" y1="52" x2="33.9622905027933" y2="40" style="stroke:blue;stroke-width:2;opacity:0.5"/>
<text x="69.4" y="58" style="font-family:Verdana;font-size:12" transform="rotate(90 69.4 58)"> 0.39 "End Copy Logo Screen to FB"</text>
<line x1="33.9622905027933" y1="0" x2="33.9622905027933" y2="40" style="stroke:blue;stroke-width:2;opacity:0.5"/>
<line x1="88" y1="52" x2="33.9622905027933" y2="40" style="stroke:blue;stroke-width:2;opacity:0.5"/>
<text x="85" y="58" style="font-family:Verdana;font-size:12" transform="rotate(90 85 58)"> 0.39 "Bgn Kernel Copy?"</text>
<line x1="76.1904096834264" y1="0" x2="76.1904096834264" y2="40" style="stroke:blue;stroke-width:2;opacity:0.5"/>
<line x1="103.6" y1="52" x2="76.1904096834264" y2="40" style="stroke:blue;stroke-width:2;opacity:0.5"/>
<text x="100.6" y="58" style="font-family:Verdana;font-size:12" transform="rotate(90 100.6 58)"> 1.07 "End Kernel Copy"</text>
<line x1="135.074487895717" y1="0" x2="135.074487895717" y2="80" style="stroke:orange;stroke-width:2;opacity:0.5"/>
<line x1="135.074487895717" y1="92" x2="135.074487895717" y2="80" style="stroke:orange;stroke-width:2;opacity:0.5"/>
<text x="132.074487895717" y="98" style="font-family:Verdana;font-size:12" transform="rotate(90 132.074487895717 98)"> 2.02 "End Uncompress Kernel"</text>
<line x1="135.136405959032" y1="0" x2="135.136405959032" y2="80" style="stroke:orange;stroke-width:2;opacity:0.5"/>
<line x1="150.674487895717" y1="92" x2="135.136405959032" y2="80" style="stroke:orange;stroke-width:2;opacity:0.5"/>
<text x="147.674487895717" y="98" style="font-family:Verdana;font-size:12" transform="rotate(90 147.674487895717 98)"> 2.02 "Bgn Kernel runs"</text>
<line x1="136.312849162011" y1="0" x2="136.312849162011" y2="80" style="stroke:orange;stroke-width:2;opacity:0.5"/>
<line x1="166.274487895717" y1="92" x2="136.312849162011" y2="80" style="stroke:orange;stroke-width:2;opacity:0.5"/>
<text x="163.274487895717" y="98" style="font-family:Verdana;font-size:12" transform="rotate(90 163.274487895717 98)"> 2.04 "jiffies=0"</text>
<line x1="136.312849162011" y1="0" x2="136.312849162011" y2="120" style="stroke:green;stroke-width:2;opacity:0.5"/>
<line x1="181.874487895717" y1="132" x2="136.312849162011" y2="120" style="stroke:green;stroke-width:2;opacity:0.5"/>
<text x="178.874487895717" y="138" style="font-family:Verdana;font-size:12" transform="rotate(90 178.874487895717 138)"> 2.04 "Linux version 2.6.31-leapfrog (rdowling@rdowling-t400) (gcc version 4.1.1) #1 Wed Mar 30 16:23:19 PDT 2011"</text>
<line x1="148.077281191806" y1="0" x2="148.077281191806" y2="120" style="stroke:green;stroke-width:2;opacity:0.5"/>
<line x1="197.474487895717" y1="132" x2="148.077281191806" y2="120" style="stroke:green;stroke-width:2;opacity:0.5"/>
<text x="194.474487895717" y="138" style="font-family:Verdana;font-size:12" transform="rotate(90 194.474487895717 138)"> 2.23 "nand_get_flash_type(...): Manu_ID = 49</text>
<line x1="166.033519553073" y1="0" x2="166.033519553073" y2="120" style="stroke:green;stroke-width:2;opacity:0.5"/>
<line x1="213.074487895717" y1="132" x2="166.033519553073" y2="120" style="stroke:green;stroke-width:2;opacity:0.5"/>
<text x="210.074487895717" y="138" style="font-family:Verdana;font-size:12" transform="rotate(90 210.074487895717 138)"> 2.52 "Waiting for root device /dev/mmcblk0p3..."</text>
<line x1="171.296554934823" y1="0" x2="171.296554934823" y2="160" style="stroke:red;stroke-width:2;opacity:0.5"/>
<line x1="228.674487895717" y1="172" x2="171.296554934823" y2="160" style="stroke:red;stroke-width:2;opacity:0.5"/>
<text x="225.674487895717" y="178" style="font-family:Verdana;font-size:12" transform="rotate(90 225.674487895717 178)"> 2.60 "End mount -o remount</text>
<line x1="174.702048417132" y1="0" x2="174.702048417132" y2="120" style="stroke:green;stroke-width:2;opacity:0.5"/>
<line x1="244.274487895717" y1="132" x2="174.702048417132" y2="120" style="stroke:green;stroke-width:2;opacity:0.5"/>
<text x="241.274487895717" y="138" style="font-family:Verdana;font-size:12" transform="rotate(90 241.274487895717 138)"> 2.66 "VFS: Mounted root (ext4 filesystem) readonly on device 179:3."</text>
<line x1="203.803538175047" y1="0" x2="203.803538175047" y2="160" style="stroke:red;stroke-width:2;opacity:0.5"/>
<line x1="259.874487895717" y1="172" x2="203.803538175047" y2="160" style="stroke:red;stroke-width:2;opacity:0.5"/>
<text x="256.874487895717" y="178" style="font-family:Verdana;font-size:12" transform="rotate(90 256.874487895717 178)"> 3.13 "End mount -a"</text>
<line x1="208.137802607076" y1="0" x2="208.137802607076" y2="160" style="stroke:red;stroke-width:2;opacity:0.5"/>
<line x1="275.474487895717" y1="172" x2="208.137802607076" y2="160" style="stroke:red;stroke-width:2;opacity:0.5"/>
<text x="272.474487895717" y="178" style="font-family:Verdana;font-size:12" transform="rotate(90 272.474487895717 178)"> 3.20 "Bgn mounts"</text>
<line x1="222.37895716946" y1="0" x2="222.37895716946" y2="160" style="stroke:red;stroke-width:2;opacity:0.5"/>
<line x1="291.074487895717" y1="172" x2="222.37895716946" y2="160" style="stroke:red;stroke-width:2;opacity:0.5"/>
<text x="288.074487895717" y="178" style="font-family:Verdana;font-size:12" transform="rotate(90 288.074487895717 178)"> 3.43 "End mounts"</text>
<line x1="280.581936685289" y1="0" x2="280.581936685289" y2="200" style="stroke:black;stroke-width:2;opacity:0.5"/>
<line x1="306.674487895717" y1="212" x2="280.581936685289" y2="200" style="stroke:black;stroke-width:2;opacity:0.5"/>
<text x="303.674487895717" y="218" style="font-family:Verdana;font-size:12" transform="rotate(90 303.674487895717 218)"> 4.37 "Bgn app"</text>
<line x1="376.554934823091" y1="0" x2="376.554934823091" y2="160" style="stroke:red;stroke-width:2;opacity:0.5"/>
<line x1="376.554934823091" y1="172" x2="376.554934823091" y2="160" style="stroke:red;stroke-width:2;opacity:0.5"/>
<text x="373.554934823091" y="178" style="font-family:Verdana;font-size:12" transform="rotate(90 373.554934823091 178)"> 5.92 "End usbether"</text>
<line x1="398.22625698324" y1="0" x2="398.22625698324" y2="160" style="stroke:red;stroke-width:2;opacity:0.5"/>
<line x1="398.22625698324" y1="172" x2="398.22625698324" y2="160" style="stroke:red;stroke-width:2;opacity:0.5"/>
<text x="395.22625698324" y="178" style="font-family:Verdana;font-size:12" transform="rotate(90 395.22625698324 178)"> 6.27 "End touchscreen"</text>
<line x1="432.281191806331" y1="0" x2="432.281191806331" y2="160" style="stroke:red;stroke-width:2;opacity:0.5"/>
<line x1="432.281191806331" y1="172" x2="432.281191806331" y2="160" style="stroke:red;stroke-width:2;opacity:0.5"/>
<text x="429.281191806331" y="178" style="font-family:Verdana;font-size:12" transform="rotate(90 429.281191806331 178)"> 6.82 "End setcal"</text>
<line x1="473.766294227188" y1="0" x2="473.766294227188" y2="160" style="stroke:red;stroke-width:2;opacity:0.5"/>
<line x1="473.766294227188" y1="172" x2="473.766294227188" y2="160" style="stroke:red;stroke-width:2;opacity:0.5"/>
<text x="470.766294227188" y="178" style="font-family:Verdana;font-size:12" transform="rotate(90 470.766294227188 178)"> 7.49 "End sounds/startup.wav"</text>
<line x1="535.684357541899" y1="0" x2="535.684357541899" y2="200" style="stroke:black;stroke-width:2;opacity:0.5"/>
<line x1="535.684357541899" y1="212" x2="535.684357541899" y2="200" style="stroke:black;stroke-width:2;opacity:0.5"/>
<text x="532.684357541899" y="218" style="font-family:Verdana;font-size:12" transform="rotate(90 532.684357541899 218)"> 8.49 "AppManager: Start splash video: "</text>
<line x1="540.637802607076" y1="0" x2="540.637802607076" y2="200" style="stroke:black;stroke-width:2;opacity:0.5"/>
<line x1="551.284357541899" y1="212" x2="540.637802607076" y2="200" style="stroke:black;stroke-width:2;opacity:0.5"/>
<text x="548.284357541899" y="218" style="font-family:Verdana;font-size:12" transform="rotate(90 548.284357541899 218)"> 8.57 "AppManager: End Load DidjPatches: "</text>
<line x1="560.451582867784" y1="0" x2="560.451582867784" y2="200" style="stroke:black;stroke-width:2;opacity:0.5"/>
<line x1="566.884357541899" y1="212" x2="560.451582867784" y2="200" style="stroke:black;stroke-width:2;opacity:0.5"/>
<text x="563.884357541899" y="218" style="font-family:Verdana;font-size:12" transform="rotate(90 563.884357541899 218)"> 8.89 "AppManager: Bgn Load main.swf: "</text>
<line x1="622.369646182495" y1="0" x2="622.369646182495" y2="200" style="stroke:black;stroke-width:2;opacity:0.5"/>
<line x1="622.369646182495" y1="212" x2="622.369646182495" y2="200" style="stroke:black;stroke-width:2;opacity:0.5"/>
<text x="619.369646182495" y="218" style="font-family:Verdana;font-size:12" transform="rotate(90 619.369646182495 218)"> 9.89 "AppManager: UI loaded: "</text>
<line x1="622.369646182495" y1="0" x2="622.369646182495" y2="200" style="stroke:black;stroke-width:2;opacity:0.5"/>
<line x1="637.969646182495" y1="212" x2="622.369646182495" y2="200" style="stroke:black;stroke-width:2;opacity:0.5"/>
<text x="634.969646182495" y="218" style="font-family:Verdana;font-size:12" transform="rotate(90 634.969646182495 218)"> 9.89 "AppManager: End Load main.swf: "</text>
<line x1="626.703910614525" y1="0" x2="626.703910614525" y2="200" style="stroke:black;stroke-width:2;opacity:0.5"/>
<line x1="653.569646182495" y1="212" x2="626.703910614525" y2="200" style="stroke:black;stroke-width:2;opacity:0.5"/>
<text x="650.569646182495" y="218" style="font-family:Verdana;font-size:12" transform="rotate(90 650.569646182495 218)"> 9.96 "AppManager: Flash: Bgn LoadMovie: "</text>
<line x1="650.232774674115" y1="0" x2="650.232774674115" y2="200" style="stroke:black;stroke-width:2;opacity:0.5"/>
<line x1="669.169646182495" y1="212" x2="650.232774674115" y2="200" style="stroke:black;stroke-width:2;opacity:0.5"/>
<text x="666.169646182495" y="218" style="font-family:Verdana;font-size:12" transform="rotate(90 666.169646182495 218)">10.34 "AppManager: Flash: End LoadMovie: "</text>
<line x1="650.232774674115" y1="0" x2="650.232774674115" y2="200" style="stroke:black;stroke-width:2;opacity:0.5"/>
<line x1="684.769646182495" y1="212" x2="650.232774674115" y2="200" style="stroke:black;stroke-width:2;opacity:0.5"/>
<text x="681.769646182495" y="218" style="font-family:Verdana;font-size:12" transform="rotate(90 681.769646182495 218)">10.34 "AppManager: UI entered: "</text>
<line x1="686.145251396648" y1="0" x2="686.145251396648" y2="240" style="stroke:pink;stroke-width:2;opacity:0.5"/>
<line x1="700.369646182495" y1="252" x2="686.145251396648" y2="240" style="stroke:pink;stroke-width:2;opacity:0.5"/>
<text x="697.369646182495" y="258" style="font-family:Verdana;font-size:12" transform="rotate(90 697.369646182495 258)">10.92 "AppManager: Flash: Begin Load Movie: "</text>
<line x1="709.054934823091" y1="0" x2="709.054934823091" y2="240" style="stroke:pink;stroke-width:2;opacity:0.5"/>
<line x1="715.969646182495" y1="252" x2="709.054934823091" y2="240" style="stroke:pink;stroke-width:2;opacity:0.5"/>
<text x="712.969646182495" y="258" style="font-family:Verdana;font-size:12" transform="rotate(90 712.969646182495 258)">11.29 "AppManager: Flash: End Load Movie: "</text>
<line x1="772.830540037244" y1="0" x2="772.830540037244" y2="200" style="stroke:black;stroke-width:2;opacity:0.5"/>
<line x1="772.830540037244" y1="212" x2="772.830540037244" y2="200" style="stroke:black;stroke-width:2;opacity:0.5"/>
<text x="769.830540037244" y="218" style="font-family:Verdana;font-size:12" transform="rotate(90 769.830540037244 218)">12.32 "AppManager: UI updated: "</text>
<line x1="870.041899441341" y1="0" x2="870.041899441341" y2="200" style="stroke:black;stroke-width:2;opacity:0.5"/>
<line x1="870.041899441341" y1="212" x2="870.041899441341" y2="200" style="stroke:black;stroke-width:2;opacity:0.5"/>
<text x="867.041899441341" y="218" style="font-family:Verdana;font-size:12" transform="rotate(90 867.041899441341 218)">13.89 "AppManager: End splash video: "</text>
<line x1="899.762569832402" y1="0" x2="899.762569832402" y2="160" style="stroke:red;stroke-width:2;opacity:0.5"/>
<line x1="899.762569832402" y1="172" x2="899.762569832402" y2="160" style="stroke:red;stroke-width:2;opacity:0.5"/>
<text x="896.762569832402" y="178" style="font-family:Verdana;font-size:12" transform="rotate(90 896.762569832402 178)">14.37 "Bgn Rest of networking at 10s"</text>
<line x1="910.90782122905" y1="0" x2="910.90782122905" y2="200" style="stroke:black;stroke-width:2;opacity:0.5"/>
<line x1="915.362569832402" y1="212" x2="910.90782122905" y2="200" style="stroke:black;stroke-width:2;opacity:0.5"/>
<text x="912.362569832402" y="218" style="font-family:Verdana;font-size:12" transform="rotate(90 912.362569832402 218)">14.55 "Bgn CartManager"</text>
<line x1="923.291433891992" y1="0" x2="923.291433891992" y2="160" style="stroke:red;stroke-width:2;opacity:0.5"/>
<line x1="930.962569832402" y1="172" x2="923.291433891992" y2="160" style="stroke:red;stroke-width:2;opacity:0.5"/>
<text x="927.962569832402" y="178" style="font-family:Verdana;font-size:12" transform="rotate(90 927.962569832402 178)">14.75 "End dbus-1"</text>
<line x1="993.258845437616" y1="0" x2="993.258845437616" y2="160" style="stroke:red;stroke-width:2;opacity:0.5"/>
<line x1="993.258845437616" y1="172" x2="993.258845437616" y2="160" style="stroke:red;stroke-width:2;opacity:0.5"/>
<text x="990.258845437616" y="178" style="font-family:Verdana;font-size:12" transform="rotate(90 990.258845437616 178)">15.88 "End networking"</text>
<line x1="1022.36033519553" y1="0" x2="1022.36033519553" y2="160" style="stroke:red;stroke-width:2;opacity:0.5"/>
<line x1="1022.36033519553" y1="172" x2="1022.36033519553" y2="160" style="stroke:red;stroke-width:2;opacity:0.5"/>
<text x="1019.36033519553" y="178" style="font-family:Verdana;font-size:12" transform="rotate(90 1019.36033519553 178)">16.35 "End avahi-daemon"</text>
<line x1="1027.93296089385" y1="0" x2="1027.93296089385" y2="160" style="stroke:red;stroke-width:2;opacity:0.5"/>
<line x1="1037.96033519553" y1="172" x2="1027.93296089385" y2="160" style="stroke:red;stroke-width:2;opacity:0.5"/>
<text x="1034.96033519553" y="178" style="font-family:Verdana;font-size:12" transform="rotate(90 1034.96033519553 178)">16.44 "End vbus start"</text>
<line x1="1031.02886405959" y1="0" x2="1031.02886405959" y2="160" style="stroke:red;stroke-width:2;opacity:0.5"/>
<line x1="1053.56033519553" y1="172" x2="1031.02886405959" y2="160" style="stroke:red;stroke-width:2;opacity:0.5"/>
<text x="1050.56033519553" y="178" style="font-family:Verdana;font-size:12" transform="rotate(90 1050.56033519553 178)">16.49 "End Rest of networking"</text>
<line x1="1211.2104283054" y1="0" x2="1211.2104283054" y2="160" style="stroke:red;stroke-width:2;opacity:0.5"/>
<line x1="1211.2104283054" y1="172" x2="1211.2104283054" y2="160" style="stroke:red;stroke-width:2;opacity:0.5"/>
<text x="1208.2104283054" y="178" style="font-family:Verdana;font-size:12" transform="rotate(90 1208.2104283054 178)">19.40 "Bgn Version Logging at 15s"</text>
<line x1="1276.22439478585" y1="0" x2="1276.22439478585" y2="160" style="stroke:red;stroke-width:2;opacity:0.5"/>
<line x1="1276.22439478585" y1="172" x2="1276.22439478585" y2="160" style="stroke:red;stroke-width:2;opacity:0.5"/>
<text x="1273.22439478585" y="178" style="font-family:Verdana;font-size:12" transform="rotate(90 1273.22439478585 178)">20.45 "End Version Logging"</text>
</svg>
