<?xml version="1.0" standalone="no"?>
<!DOCTYPE svg PUBLIC "-//W3C//DTD SVG 1.1//EN" "http://www.w3.org/Graphics/SVG/1.1/DTD/svg11.dtd">
<svg width="1350" height="500" version="1.1" xmlns="http://www.w3.org/2000/svg">
<rect width="1350" height="500" style="fill:white;stroke-width:5; stroke:black"/>
<line x1="10" y1="0" x2="10" y2="40" style="stroke:blue;stroke-width:2;opacity:0.5"/>
<line x1="10" y1="52" x2="10" y2="40" style="stroke:blue;stroke-width:2;opacity:0.5"/>
<text x="7" y="58" style="font-family:Verdana;font-size:12" transform="rotate(90 7 58)"> 0.00 "Power on"</text>
<line x1="22.445530726257" y1="0" x2="22.445530726257" y2="40" style="stroke:blue;stroke-width:2;opacity:0.5"/>
<line x1="25.6" y1="52" x2="22.445530726257" y2="40" style="stroke:blue;stroke-width:2;opacity:0.5"/>
<text x="22.6" y="58" style="font-family:Verdana;font-size:12" transform="rotate(90 22.6 58)"> 0.20 "Bgn NOR copy to RAM"</text>
<line x1="31.0521415270019" y1="0" x2="31.0521415270019" y2="40" style="stroke:blue;stroke-width:2;opacity:0.5"/>
<line x1="41.2" y1="52" x2="31.0521415270019" y2="40" style="stroke:blue;stroke-width:2;opacity:0.5"/>
<text x="38.2" y="58" style="font-family:Verdana;font-size:12" transform="rotate(90 38.2 58)"> 0.34 "End NOR copy to RAM"</text>
<line x1="32.104748603352" y1="0" x2="32.104748603352" y2="40" style="stroke:blue;stroke-width:2;opacity:0.5"/>
<line x1="56.8" y1="52" x2="32.104748603352" y2="40" style="stroke:blue;stroke-width:2;opacity:0.5"/>
<text x="53.8" y="58" style="font-family:Verdana;font-size:12" transform="rotate(90 53.8 58)"> 0.36 "Bgn Copy Logo Screen to FB??"</text>
<line x1="33.9622905027933" y1="0" x2="33.9622905027933" y2="40" style="stroke:blue;stroke-width:2;opacity:0.5"/>
<line x1="72.4" y1="52" x2="33.9622905027933" y2="40" style="stroke:blue;stroke-width:2;opacity:0.5"/>
<text x="69.4" y="58" style="font-family:Verdana;font-size:12" transform="rotate(90 69.4 58)"> 0.39 "End Copy Logo Screen to FB"</text>
<line x1="33.9622905027933" y1="0" x2="33.9622905027933" y2="40" style="stroke:blue;stroke-width:2;opacity:0.5"/>
<line x1="88" y1="52" x2="33.9622905027933" y2="40" style="stroke:blue;stroke-width:2;opacity:0.5"/>
<text x="85" y="58" style="font-family:Verdana;font-size:12" transform="rotate(90 85 58)"> 0.39 "Bgn Kernel Copy?"</text>
<line x1="76.1904096834264" y1="0" x2="76.1904096834264" y2="40" style="stroke:blue;stroke-width:2;opacity:0.5"/>
<line x1="103.6" y1="52" x2="76.1904096834264" y2="40" style="stroke:blue;stroke-width:2;opacity:0.5"/>
<text x="100.6" y="58" style="font-family:Verdana;font-size:12" transform="rotate(90 100.6 58)"> 1.07 "End Kernel Copy"</text>
<line x1="135.074487895717" y1="0" x2="135.074487895717" y2="80" style="stroke:orange;stroke-width:2;opacity:0.5"/>
<line x1="135.074487895717" y1="92" x2="135.074487895717" y2="80" style="stroke:orange;stroke-width:2;opacity:0.5"/>
<text x="132.074487895717" y="98" style="font-family:Verdana;font-size:12" transform="rotate(90 132.074487895717 98)"> 2.02 "End Uncompress Kernel"</text>
<line x1="135.136405959032" y1="0" x2="135.136405959032" y2="80" style="stroke:orange;stroke-width:2;opacity:0.5"/>
<line x1="150.674487895717" y1="92" x2="135.136405959032" y2="80" style="stroke:orange;stroke-width:2;opacity:0.5"/>
<text x="147.674487895717" y="98" style="font-family:Verdana;font-size:12" transform="rotate(90 147.674487895717 98)"> 2.02 "Bgn Kernel runs"</text>
<line x1="136.312849162011" y1="0" x2="136.312849162011" y2="80" style="stroke:orange;stroke-width:2;opacity:0.5"/>
<line x1="166.274487895717" y1="92" x2="136.312849162011" y2="80" style="stroke:orange;stroke-width:2;opacity:0.5"/>
<text x="163.274487895717" y="98" style="font-family:Verdana;font-size:12" transform="rotate(90 163.274487895717 98)"> 2.04 "jiffies=0"</text>
<line x1="136.312849162011" y1="0" x2="136.312849162011" y2="120" style="stroke:green;stroke-width:2;opacity:0.5"/>
<line x1="181.874487895717" y1="132" x2="136.312849162011" y2="120" style="stroke:green;stroke-width:2;opacity:0.5"/>
<text x="178.874487895717" y="138" style="font-family:Verdana;font-size:12" transform="rotate(90 178.874487895717 138)"> 2.04 "Linux version 2.6.31-leapfrog (rdowling@rdowling-t400) (gcc version 4.1.1) #1 Tue Mar 29 09:59:15 PDT 2011"</text>
<line x1="148.077281191806" y1="0" x2="148.077281191806" y2="120" style="stroke:green;stroke-width:2;opacity:0.5"/>
<line x1="197.474487895717" y1="132" x2="148.077281191806" y2="120" style="stroke:green;stroke-width:2;opacity:0.5"/>
<text x="194.474487895717" y="138" style="font-family:Verdana;font-size:12" transform="rotate(90 194.474487895717 138)"> 2.23 "nand_get_flash_type(...): Manu_ID = 49</text>
<line x1="151.792364990689" y1="0" x2="151.792364990689" y2="120" style="stroke:green;stroke-width:2;opacity:0.5"/>
<line x1="213.074487895717" y1="132" x2="151.792364990689" y2="120" style="stroke:green;stroke-width:2;opacity:0.5"/>
<text x="210.074487895717" y="138" style="font-family:Verdana;font-size:12" transform="rotate(90 210.074487895717 138)"> 2.29 "lf1000-rtc lf1000-rtc: rtc core: registered lf1000-rtc as rtc0"</text>
<line x1="190.800744878957" y1="0" x2="190.800744878957" y2="120" style="stroke:green;stroke-width:2;opacity:0.5"/>
<line x1="228.674487895717" y1="132" x2="190.800744878957" y2="120" style="stroke:green;stroke-width:2;opacity:0.5"/>
<text x="225.674487895717" y="138" style="font-family:Verdana;font-size:12" transform="rotate(90 225.674487895717 138)"> 2.92 "lf1000-rtc lf1000-rtc: setting system clock to 2011-01-01 21:31:41 UTC (1293917501)"</text>
<line x1="224.855679702048" y1="0" x2="224.855679702048" y2="120" style="stroke:green;stroke-width:2;opacity:0.5"/>
<line x1="244.274487895717" y1="132" x2="224.855679702048" y2="120" style="stroke:green;stroke-width:2;opacity:0.5"/>
<text x="241.274487895717" y="138" style="font-family:Verdana;font-size:12" transform="rotate(90 241.274487895717 138)"> 3.47 "VFS: Mounted root (ext4 filesystem) readonly on device 179:3."</text>
<line x1="253.957169459963" y1="0" x2="253.957169459963" y2="160" style="stroke:red;stroke-width:2;opacity:0.5"/>
<line x1="259.874487895717" y1="172" x2="253.957169459963" y2="160" style="stroke:red;stroke-width:2;opacity:0.5"/>
<text x="256.874487895717" y="178" style="font-family:Verdana;font-size:12" transform="rotate(90 256.874487895717 178)"> 3.94 "End mount -a"</text>
<line x1="284.916201117318" y1="0" x2="284.916201117318" y2="160" style="stroke:red;stroke-width:2;opacity:0.5"/>
<line x1="284.916201117318" y1="172" x2="284.916201117318" y2="160" style="stroke:red;stroke-width:2;opacity:0.5"/>
<text x="281.916201117318" y="178" style="font-family:Verdana;font-size:12" transform="rotate(90 281.916201117318 178)"> 4.44 "End mounts"</text>
<line x1="343.119180633147" y1="0" x2="343.119180633147" y2="200" style="stroke:black;stroke-width:2;opacity:0.5"/>
<line x1="343.119180633147" y1="212" x2="343.119180633147" y2="200" style="stroke:black;stroke-width:2;opacity:0.5"/>
<text x="340.119180633147" y="218" style="font-family:Verdana;font-size:12" transform="rotate(90 340.119180633147 218)"> 5.38 "Bgn app"</text>
<line x1="381.508379888268" y1="0" x2="381.508379888268" y2="160" style="stroke:red;stroke-width:2;opacity:0.5"/>
<line x1="381.508379888268" y1="172" x2="381.508379888268" y2="160" style="stroke:red;stroke-width:2;opacity:0.5"/>
<text x="378.508379888268" y="178" style="font-family:Verdana;font-size:12" transform="rotate(90 378.508379888268 178)"> 6.00 "Bgn sounds/startup.wav"</text>
<line x1="433.519553072626" y1="0" x2="433.519553072626" y2="160" style="stroke:red;stroke-width:2;opacity:0.5"/>
<line x1="433.519553072626" y1="172" x2="433.519553072626" y2="160" style="stroke:red;stroke-width:2;opacity:0.5"/>
<text x="430.519553072626" y="178" style="font-family:Verdana;font-size:12" transform="rotate(90 430.519553072626 178)"> 6.84 "End usbether"</text>
<line x1="457.048417132216" y1="0" x2="457.048417132216" y2="160" style="stroke:red;stroke-width:2;opacity:0.5"/>
<line x1="457.048417132216" y1="172" x2="457.048417132216" y2="160" style="stroke:red;stroke-width:2;opacity:0.5"/>
<text x="454.048417132216" y="178" style="font-family:Verdana;font-size:12" transform="rotate(90 454.048417132216 178)"> 7.22 "End touchscreen"</text>
<line x1="491.103351955307" y1="0" x2="491.103351955307" y2="160" style="stroke:red;stroke-width:2;opacity:0.5"/>
<line x1="491.103351955307" y1="172" x2="491.103351955307" y2="160" style="stroke:red;stroke-width:2;opacity:0.5"/>
<text x="488.103351955307" y="178" style="font-family:Verdana;font-size:12" transform="rotate(90 488.103351955307 178)"> 7.77 "End setcal"</text>
<line x1="536.303538175047" y1="0" x2="536.303538175047" y2="160" style="stroke:red;stroke-width:2;opacity:0.5"/>
<line x1="536.303538175047" y1="172" x2="536.303538175047" y2="160" style="stroke:red;stroke-width:2;opacity:0.5"/>
<text x="533.303538175047" y="178" style="font-family:Verdana;font-size:12" transform="rotate(90 533.303538175047 178)"> 8.50 "End sounds/startup.wav"</text>
<line x1="598.221601489758" y1="0" x2="598.221601489758" y2="200" style="stroke:black;stroke-width:2;opacity:0.5"/>
<line x1="598.221601489758" y1="212" x2="598.221601489758" y2="200" style="stroke:black;stroke-width:2;opacity:0.5"/>
<text x="595.221601489758" y="218" style="font-family:Verdana;font-size:12" transform="rotate(90 595.221601489758 218)"> 9.50 "AppManager: Start splash video: "</text>
<line x1="604.413407821229" y1="0" x2="604.413407821229" y2="200" style="stroke:black;stroke-width:2;opacity:0.5"/>
<line x1="613.821601489758" y1="212" x2="604.413407821229" y2="200" style="stroke:black;stroke-width:2;opacity:0.5"/>
<text x="610.821601489758" y="218" style="font-family:Verdana;font-size:12" transform="rotate(90 610.821601489758 218)"> 9.60 "AppManager: End Load DidjPatches: "</text>
<line x1="624.227188081937" y1="0" x2="624.227188081937" y2="200" style="stroke:black;stroke-width:2;opacity:0.5"/>
<line x1="629.421601489758" y1="212" x2="624.227188081937" y2="200" style="stroke:black;stroke-width:2;opacity:0.5"/>
<text x="626.421601489758" y="218" style="font-family:Verdana;font-size:12" transform="rotate(90 626.421601489758 218)"> 9.92 "AppManager: Bgn Load main.swf: "</text>
<line x1="681.191806331471" y1="0" x2="681.191806331471" y2="200" style="stroke:black;stroke-width:2;opacity:0.5"/>
<line x1="681.191806331471" y1="212" x2="681.191806331471" y2="200" style="stroke:black;stroke-width:2;opacity:0.5"/>
<text x="678.191806331471" y="218" style="font-family:Verdana;font-size:12" transform="rotate(90 678.191806331471 218)">10.84 "AppManager: UI loaded: "</text>
<line x1="681.191806331471" y1="0" x2="681.191806331471" y2="200" style="stroke:black;stroke-width:2;opacity:0.5"/>
<line x1="696.791806331471" y1="212" x2="681.191806331471" y2="200" style="stroke:black;stroke-width:2;opacity:0.5"/>
<text x="693.791806331471" y="218" style="font-family:Verdana;font-size:12" transform="rotate(90 693.791806331471 218)">10.84 "AppManager: End Load main.swf: "</text>
<line x1="686.145251396648" y1="0" x2="686.145251396648" y2="240" style="stroke:pink;stroke-width:2;opacity:0.5"/>
<line x1="712.391806331471" y1="252" x2="686.145251396648" y2="240" style="stroke:pink;stroke-width:2;opacity:0.5"/>
<text x="709.391806331471" y="258" style="font-family:Verdana;font-size:12" transform="rotate(90 709.391806331471 258)">10.92 "AppManager: Flash: Begin Load Movie: "</text>
<line x1="709.054934823091" y1="0" x2="709.054934823091" y2="240" style="stroke:pink;stroke-width:2;opacity:0.5"/>
<line x1="727.991806331471" y1="252" x2="709.054934823091" y2="240" style="stroke:pink;stroke-width:2;opacity:0.5"/>
<text x="724.991806331471" y="258" style="font-family:Verdana;font-size:12" transform="rotate(90 724.991806331471 258)">11.29 "AppManager: Flash: End Load Movie: "</text>
<line x1="709.054934823091" y1="0" x2="709.054934823091" y2="200" style="stroke:black;stroke-width:2;opacity:0.5"/>
<line x1="743.591806331471" y1="212" x2="709.054934823091" y2="200" style="stroke:black;stroke-width:2;opacity:0.5"/>
<text x="740.591806331471" y="218" style="font-family:Verdana;font-size:12" transform="rotate(90 740.591806331471 218)">11.29 "AppManager: UI entered: "</text>
<line x1="828.556797020484" y1="0" x2="828.556797020484" y2="200" style="stroke:black;stroke-width:2;opacity:0.5"/>
<line x1="828.556797020484" y1="212" x2="828.556797020484" y2="200" style="stroke:black;stroke-width:2;opacity:0.5"/>
<text x="825.556797020484" y="218" style="font-family:Verdana;font-size:12" transform="rotate(90 825.556797020484 218)">13.22 "AppManager: UI updated: "</text>
<line x1="915.24208566108" y1="0" x2="915.24208566108" y2="200" style="stroke:black;stroke-width:2;opacity:0.5"/>
<line x1="915.24208566108" y1="212" x2="915.24208566108" y2="200" style="stroke:black;stroke-width:2;opacity:0.5"/>
<text x="912.24208566108" y="218" style="font-family:Verdana;font-size:12" transform="rotate(90 912.24208566108 218)">14.62 "AppManager: End splash video: "</text>
<line x1="961.680633147114" y1="0" x2="961.680633147114" y2="160" style="stroke:red;stroke-width:2;opacity:0.5"/>
<line x1="961.680633147114" y1="172" x2="961.680633147114" y2="160" style="stroke:red;stroke-width:2;opacity:0.5"/>
<text x="958.680633147114" y="178" style="font-family:Verdana;font-size:12" transform="rotate(90 958.680633147114 178)">15.37 "Bgn Rest of networking at 10s"</text>
<line x1="968.491620111732" y1="0" x2="968.491620111732" y2="160" style="stroke:red;stroke-width:2;opacity:0.5"/>
<line x1="977.280633147114" y1="172" x2="968.491620111732" y2="160" style="stroke:red;stroke-width:2;opacity:0.5"/>
<text x="974.280633147114" y="178" style="font-family:Verdana;font-size:12" transform="rotate(90 974.280633147114 178)">15.48 "Bgn CartManager"</text>
<line x1="1016.78770949721" y1="0" x2="1016.78770949721" y2="160" style="stroke:red;stroke-width:2;opacity:0.5"/>
<line x1="1016.78770949721" y1="172" x2="1016.78770949721" y2="160" style="stroke:red;stroke-width:2;opacity:0.5"/>
<text x="1013.78770949721" y="178" style="font-family:Verdana;font-size:12" transform="rotate(90 1013.78770949721 178)">16.26 "End dbus-1"</text>
<line x1="1052.70018621974" y1="0" x2="1052.70018621974" y2="160" style="stroke:red;stroke-width:2;opacity:0.5"/>
<line x1="1052.70018621974" y1="172" x2="1052.70018621974" y2="160" style="stroke:red;stroke-width:2;opacity:0.5"/>
<text x="1049.70018621974" y="178" style="font-family:Verdana;font-size:12" transform="rotate(90 1049.70018621974 178)">16.84 "End networking"</text>
<line x1="1081.18249534451" y1="0" x2="1081.18249534451" y2="160" style="stroke:red;stroke-width:2;opacity:0.5"/>
<line x1="1081.18249534451" y1="172" x2="1081.18249534451" y2="160" style="stroke:red;stroke-width:2;opacity:0.5"/>
<text x="1078.18249534451" y="178" style="font-family:Verdana;font-size:12" transform="rotate(90 1078.18249534451 178)">17.30 "End avahi-daemon"</text>
<line x1="1086.75512104283" y1="0" x2="1086.75512104283" y2="160" style="stroke:red;stroke-width:2;opacity:0.5"/>
<line x1="1096.78249534451" y1="172" x2="1086.75512104283" y2="160" style="stroke:red;stroke-width:2;opacity:0.5"/>
<text x="1093.78249534451" y="178" style="font-family:Verdana;font-size:12" transform="rotate(90 1093.78249534451 178)">17.39 "End vbus start"</text>
<line x1="1089.85102420857" y1="0" x2="1089.85102420857" y2="160" style="stroke:red;stroke-width:2;opacity:0.5"/>
<line x1="1112.38249534451" y1="172" x2="1089.85102420857" y2="160" style="stroke:red;stroke-width:2;opacity:0.5"/>
<text x="1109.38249534451" y="178" style="font-family:Verdana;font-size:12" transform="rotate(90 1109.38249534451 178)">17.44 "End Rest of networking"</text>
<line x1="1273.12849162011" y1="0" x2="1273.12849162011" y2="160" style="stroke:red;stroke-width:2;opacity:0.5"/>
<line x1="1273.12849162011" y1="172" x2="1273.12849162011" y2="160" style="stroke:red;stroke-width:2;opacity:0.5"/>
<text x="1270.12849162011" y="178" style="font-family:Verdana;font-size:12" transform="rotate(90 1270.12849162011 178)">20.40 "Bgn Version Logging at 15s"</text>
<line x1="1338.14245810056" y1="0" x2="1338.14245810056" y2="160" style="stroke:red;stroke-width:2;opacity:0.5"/>
<line x1="1338.14245810056" y1="172" x2="1338.14245810056" y2="160" style="stroke:red;stroke-width:2;opacity:0.5"/>
<text x="1335.14245810056" y="178" style="font-family:Verdana;font-size:12" transform="rotate(90 1335.14245810056 178)">21.45 "End Version Logging"</text>
</svg>
